<?xml version="1.0" encoding="UTF-8"?>
<svg width="1200pt" height="1200pt" version="1.1" viewBox="0 0 1200 1200" xmlns="http://www.w3.org/2000/svg">
 <defs>
  <clipPath id="b">
   <path d="m309 281h601v684h-601z"/>
  </clipPath>
  <clipPath id="a">
   <path d="m461.7 83.836 654.47 377.86-377.86 654.47-654.47-377.86z"/>
  </clipPath>
 </defs>
 <path d="m1200 600c0 214.36-114.36 412.44-300 519.62-185.64 107.18-414.36 107.18-600 0-185.64-107.18-300-305.26-300-519.62s114.36-412.44 300-519.62c185.64-107.18 414.36-107.18 600 0 185.64 107.18 300 305.26 300 519.62" fill="#ffd65b"/>
 <g clip-path="url(#b)">
  <g clip-path="url(#a)">
   <path d="m883.94 524.79c-7.25-6.0195-14.93-10.25-23.016-12.668 5.8047-10.727 11.418-21.594 16.801-32.594l0.066406-0.11719c7.7188-16.426 8.7695-33.129 3.1406-50.129-5.7891-17.527-16.906-30.336-33.375-38.387-12.984-6.3789-26.352-8.3477-40.121-5.9141 2.5898-6.3867 4.0742-10.883 4.4844-13.43l0.023437-0.29688c3.3633-20.086 0.015625-38.871-10.082-56.363l-0.054687-0.17578c-10.82-19.074-28.211-30-52.156-32.758l0.125 0.070313c-23.945-3.5156-45.426 6.418-64.473 29.805l0.13281-0.23438c-2.8984 3.3594-5.8281 7.2031-8.8398 11.535-1.0781-2.0977-2.3359-4.168-3.7266-6.1953l-0.17188-0.25391c-10.418-14.535-24.402-23.602-41.988-27.199-0.11328-0.007813-0.25781-0.042969-0.41016-0.082031-17.777-3.1484-34.059 0-48.828 9.4375l0.066406-0.11719c-13.465 7.8867-25.332 22.965-35.598 45.215l-0.11719-0.066406c-7.6172 16.082-30.41 87.77-68.363 215.09-0.36328-0.62891-0.73438-1.2461-1.0898-1.8711l0.11719 0.066406c-9.0195-15.969-20.488-30.832-34.426-44.609l0.050781 0.18359c-15.383-15.695-35.961-25.191-61.754-28.496-30.477-4.1562-51.965 8.625-64.449 38.359l-0.074219 0.13281c-12.777 28.195-5.0625 55.672 23.176 82.402 18.035 16.996 29.043 29.887 33.031 38.664l0.054688 0.1875c3.0156 8.9336 4.4531 21.527 4.3047 37.789-0.015626 0.10937-0.027344 0.19922-0.019532 0.30078-0.5625 23.043 6.0938 45.082 19.984 66.117l-0.11719-0.066406c4.0508 6.2852 8.4531 12.297 13.215 18.055-11.914 6.0742-19.641 12.91-23.191 20.508-14.871 23.574-11.742 51.086 9.3984 82.555l-0.046875-0.19141c14.215 21.762 32.668 41.238 55.379 58.414l0.125 0.070312c22.996 17.234 49.383 28.832 79.109 34.797l0.19531-0.050781c34.762 7.5352 63.715-7.2812 86.754-44.445 1.25-1.9648 2.043-3.9766 2.4297-6.0742 75.039 0.51562 128.3-54.465 159.78-164.95 43.887-39.469 83.195-83.59 117.93-132.36l0.0625-0.10938c9.8438-13.805 13.43-29.457 10.773-46.961-2.7031-17.531-10.777-31.734-24.219-42.59zm-133.25 197.68c-2.7656 2.4766-4.6211 5.5039-5.5664 9.0703-29.926 109.15-83.805 155.11-161.7 137.87-4.9688-1.1992-9.6328-0.48047-14.008 2.1797-4.3828 2.6875-7.1719 6.5273-8.3633 11.512-1.2109 4.9531-0.48438 9.6211 2.1914 14.004 2.6758 4.3867 6.5156 7.1719 11.492 8.3594 1.6836 0.42969 3.3633 0.82812 5.0664 1.1992-12 15.207-26.113 21.633-42.371 19.246l0.19531-0.050781c-24.102-4.8203-45.508-14.164-64.207-28.043-19.141-14.453-34.75-30.816-46.77-49.078l-0.050782-0.19531c-11.211-16.672-13.938-31.094-8.1484-43.273 3.1953-3.6719 9.6484-7.3047 19.371-10.895 2.1289 1.7734 4.2969 3.4883 6.4961 5.1562 4.0859 3.0859 8.6758 4.2812 13.789 3.6094 5.082-0.72266 9.168-3.1328 12.262-7.2305 3.1016-4.0781 4.2891-8.6719 3.5977-13.773-0.71875-5.0859-3.1289-9.1758-7.2188-12.266-15.852-11.945-28.93-25.914-39.234-41.926l-0.125-0.070313c-9.5039-14.387-14.137-29.453-13.875-45.195l0.015625-0.28125c0.22266-22.25-2.0234-39.387-6.6836-51.445l-0.046875-0.19141c-4.1523-12.422-18.258-29.941-42.289-52.555-14.363-13.598-19.16-27.305-14.363-41.105l0.066407-0.11719c4.9766-11.93 13.434-17.258 25.402-15.973 16.676 2.1523 30.078 8.1055 40.195 17.922l0.039062 0.1875c11.426 11.242 20.859 23.367 28.289 36.383l0.11719 0.066407c9.1562 16.02 18.5 28.008 28.07 35.957 0.26172 0.28516 0.52344 0.53516 0.78906 0.76562 0.53906 0.45703 1.1328 0.89453 1.7383 1.3047 4.918 3.3359 14.621 8.7148 29.066 16.172l0.23438 0.13281c11.305 5.9844 23.203 17.41 35.715 34.301l-0.066407 0.11719c12.066 16.816 17.16 38.578 15.332 65.301-0.34766 5.1016 1.1445 9.5898 4.5 13.484 3.3203 3.875 7.5469 6.0039 12.641 6.3672 5.1328 0.34766 9.625-1.1523 13.5-4.5078 3.8594-3.3086 5.9844-7.5312 6.3594-12.645 2.6094-37.062-4.8359-67.125-22.398-90.227l-0.070313 0.125c-16.711-22.727-32.906-37.875-48.543-45.449l-0.23438-0.13281c-5.3086-2.7461-9.8789-5.1719-13.68-7.2773 40.582-136.54 64.73-213.11 72.426-229.69l-0.125-0.070312c6.5586-14.062 13.797-23.828 21.738-29.289l0.066406-0.11719c6.6914-4.1641 14.02-5.5781 22.027-4.2305 0.14453 0.035156 0.27734 0.054688 0.41797 0.085938 7.7188 1.6758 13.891 5.7148 18.527 12.094 0.054688 0.089843 0.11328 0.17187 0.16797 0.26172 4.1211 6.082 5.5625 12.715 4.3594 19.922l-0.054688-0.17578c-2.0742 11.652-4.5 23.211-7.2773 34.668-0.097657 0.33984-0.19531 0.69141-0.29688 1.0703-0.33984 1.832-1.5156 6.8047-3.5039 14.934-0.14063 0.375-0.26563 0.77734-0.36328 1.1875-9.6133 39.32-26.406 89.5-50.359 150.52-1.9062 4.7969-1.8516 9.5391 0.16797 14.254 2.0898 4.707 5.5273 7.9922 10.328 9.8516 4.7344 1.8789 9.457 1.793 14.137-0.23438 4.6797-2.0586 7.9375-5.4727 9.7773-10.219 24.719-62.695 42.082-114.3 52.066-154.82 15.133-39.879 29.289-67.84 42.504-83.848l0.13281-0.23438c9.4453-11.609 19.844-17.059 31.207-16.352l0.125 0.070312c11.043 1.2773 19.176 6.1172 24.406 14.555l-0.070313-0.18359c5.6055 9.7539 7.5039 20.234 5.6562 31.414-3.0469 13.891-40.387 90.203-111.95 228.94-0.125 0.17969-0.23828 0.37891-0.33594 0.58203-2.3203 4.4375-2.7188 9.0742-1.1914 13.922 1.4922 4.8867 4.4844 8.5234 8.9297 10.914 4.4805 2.3828 9.1875 2.8789 14.09 1.4453 4.8711-1.4141 8.5234-4.3477 10.969-8.7539 0.11328-0.19531 0.22266-0.38672 0.33594-0.58203 60.957-109.53 92.938-167.25 95.941-173.2l0.13281-0.23438c3.5-7.1914 8.9297-12.141 16.328-14.832l0.19141-0.046875c7.6719-2.5898 15.094-2.1445 22.254 1.3398 7.1367 3.4922 11.973 9.0352 14.508 16.617 2.5039 7.5742 2.0352 15.031-1.4062 22.352-5.543 11.363-11.293 22.617-17.277 33.723-4.332 7.8242-8.8477 15.844-13.578 24.039-0.50391 0.71875-0.95703 1.5039-1.3477 2.3359-22.859 39.48-51.809 83.238-86.848 131.32-3.0117 4.125-4.1094 8.7305-3.3164 13.805 0.76563 5.0742 3.1953 9.125 7.293 12.141 4.125 3 8.7305 4.1094 13.801 3.3047 5.0664-0.76953 9.125-3.1953 12.137-7.3047 34.379-47.121 63.051-90.234 86.016-129.32 0.14844-0.003906 0.30859-0.015625 0.49609-0.035156 6.8555-0.58984 13.121 1.4883 18.816 6.1992l0.11328 0.074218c6.043 4.9531 9.6719 11.41 10.898 19.363 1.1484 7.4688-0.28125 14.156-4.2812 20.078-34.148 47.875-72.957 91.031-116.43 129.49z"/>
  </g>
 </g>
</svg>
