<?xml version="1.0" encoding="UTF-8"?>
<svg width="1200pt" height="1200pt" version="1.1" viewBox="0 0 1200 1200" xmlns="http://www.w3.org/2000/svg">
 <defs>
  <clipPath id="b">
   <path d="m341 258h540v650h-540z"/>
  </clipPath>
  <clipPath id="a">
   <path d="m461.7 83.836 654.47 377.86-377.86 654.47-654.47-377.86z"/>
  </clipPath>
 </defs>
 <path d="m1200 600c0 214.36-114.36 412.44-300 519.62-185.64 107.18-414.36 107.18-600 0-185.64-107.18-300-305.26-300-519.62s114.36-412.44 300-519.62c185.64-107.18 414.36-107.18 600 0 185.64 107.18 300 305.26 300 519.62" fill="#ff59b9"/>
 <g clip-path="url(#b)">
  <g clip-path="url(#a)">
   <path d="m878.98 641.2c-4.1992-21.844-15.188-37.777-32.941-47.785-0.46484-0.26953-0.92969-0.53906-1.3945-0.80469 8.1211-19.891 11.094-40.777 8.918-62.684l-0.0625-0.23047c-3.832-33.734-18.211-57.48-43.133-71.23-5.9062-3.3906-12.035-6.0586-18.375-7.9922-0.15234-2.957-0.32812-6.1133-0.50781-9.4453-0.089843-0.42969-0.15234-0.84375-0.21875-1.25-1.9062-21.906-14.867-39.793-38.906-53.664-13.082-8.2891-29.449-11.445-49.082-9.4688 0.003906-6.3555-0.38672-12.684-1.1797-18.984-0.28125-3.207-0.83203-7.0039-1.6328-11.414-0.30859-1.6133-0.77344-3.1914-1.3906-4.7305-0.15625-0.37109-0.34766-0.79297-0.57422-1.2734-7.8281-35.43-22.352-58.961-43.527-70.527-20.934-13.703-48.348-14.652-82.266-2.8477l-0.21484 0.070312c-56.742 18.609-91.797 63.574-105.16 134.91-2.1914 0.48828-4.4219 1.0078-6.6953 1.5547l0.14453 0.082031c-48.859 11.992-83.566 36.172-104.11 72.547-15.441 25.148-19.332 61.645-11.645 109.49l0.0625 0.23047c3.7617 27.895 17.5 57.371 41.23 88.445-8.7344 5.4375-15.203 12.223-19.418 20.367-17.871 28.32-14.117 61.379 11.301 99.207l-0.0625-0.23047c17.273 26.254 39.457 49.648 66.547 70.176l0.13281 0.074218c27.641 20.691 59.422 34.684 95.348 41.969l0.23047-0.0625c38.859 8.4336 71.609-6.3594 98.277-44.336 10.398 0.54688 21.891 0.074219 34.449-1.4102l0.22656-0.054688c45.203-3.9805 78.73-35.184 100.58-93.641 6.6992-1.3398 13.773-3.2344 21.23-5.6875l0.14453 0.082032c32.797-10.723 55.809-28.262 69.055-52.617l0.16016-0.27734c13.707-24.848 18.578-46.887 14.617-66.109-0.09375-0.14062-0.12891-0.28516-0.15234-0.44531zm-179.91-35.301c0.32031-0.18359 0.66797-0.35156 1.043-0.51172 2.1914-1.2266 4.4062-2.4414 6.5977-3.668 16.469-9.1094 30.895-20.395 43.277-33.867 9.043-9.8008 16.988-20.656 23.844-32.57 6.9805-12.105 12.031-24.633 15.164-37.582 11.426 7.6641 18.113 19.93 20.051 36.797l0.0625 0.23047c1.8047 18.688-2.0469 36.262-11.578 52.73-11.293 19.543-26.961 34.793-46.961 45.75l0.21484-0.070312c-20.594 11-39.469 11.887-56.633 2.6172-6.7734-3.9023-10.574-8.957-11.406-15.176l0.16406-0.28516c-0.12109-2.582 0.14844-5.2266 0.83203-7.9258 5.0078-1.7578 10.121-3.918 15.328-6.4688zm-51.609-101.54c0.68359-0.64453 1.293-1.2812 1.8555-1.9219 1.5547-1.8359 3.1133-3.6797 4.6719-5.5234l-0.84375 0.82031c12.477-13.195 22.691-27.863 30.617-43.98l0.082031-0.13672c4.8281-9.6055 8.8477-19.676 12.035-30.234 14.035-3.2031 25.41-2.7344 34.133 1.3906 9.125 5.2891 14.703 11.68 16.758 19.207l0.17969 0.66406c0.003907 0.19531 0.023438 0.38281 0.039063 0.58594 0.16797 3.5703 0.41016 6.9453 0.70312 10.121l-0.078125 0.13672c0.33984 3.6094 0.60547 6.9414 0.77344 9.9766-0.019531 0.30078-0.015625 0.61328 0.019531 0.94141-0.20312 1.3477-0.26172 2.7383-0.17969 4.1914-0.20312 0.89063-0.36719 1.7969-0.45703 2.7227-1.1328 13.871-5.3281 27.078-12.598 39.625-5.2266 9.0156-11.273 17.227-18.141 24.652-9.1289 9.9688-19.762 18.355-31.891 25.121-2.1953 1.2148-4.4023 2.4336-6.6055 3.6641-6.3555 2.9648-12.52 5.0078-18.484 6.1406l0.14453 0.082031c-12.363 2.1875-23.863 0.22266-34.523-5.9219-7.1914-4.1523-11.109-9.6602-11.762-16.508l-0.14453-0.082032c0.13281-8.2617 3.1094-17.395 8.8984-27.371 8.2617-4.6016 16.527-10.727 24.797-18.363zm-60.348-195.16 0.22656-0.054687c18.438-6.4414 33.348-6.8086 44.707-1.0938 10.926 7.6953 18.633 22.055 23.152 43.074 0.24609 0.98438 0.55859 1.9727 0.91406 2.9531 0.31641 0.84375 0.60547 1.6406 0.88281 2.3711 0.29297 1.875 0.5 3.5469 0.63672 5.043 0.0625 0.34766 0.11719 0.6875 0.15625 1.0195 1.3945 10.531 1.2148 21.207-0.53906 32.016-0.83984 3.4219-1.7227 6.8984-2.6641 10.426-2.6211 10.133-6.2227 19.695-10.777 28.711l-0.078125 0.13672c-5.9336 12.195-13.586 23.281-22.957 33.277-0.28516 0.27344-0.55859 0.55078-0.84375 0.82031-1.2852 1.5078-2.5781 3-3.8945 4.4805-1.5078 1.3672-3.0039 2.6875-4.5156 3.9258 0.17188-8.4922-1.4922-16.93-5.0039-25.305-0.097657-0.16406-0.1875-0.33203-0.24609-0.53125-4.6875-10.996-12.324-20.758-22.887-29.281 3.8203-2.9219 9.4883-7.1289 16.988-12.617 5.0312-3.6602 8.0273-8.5312 9.0039-14.602 0.91406-6.0664-0.44141-11.578-4.0938-16.559-3.6484-5.0352-8.5117-8.0273-14.613-9-6.0625-0.90234-11.578 0.45313-16.547 4.0898-17.445 12.703-27.426 20.699-29.934 24.004-0.42187 0.5625-0.81641 1.1484-1.1953 1.7344-0.48047 0.68359-0.93359 1.3633-1.3594 2.0195-0.39453-0.089844-0.77734-0.19531-1.1367-0.27734-0.24219-0.082031-0.50391-0.16406-0.78125-0.25781-7.8672-1.7891-16.293-2.7266-25.285-2.8281 11.57-44.938 35.793-74.176 72.684-87.695zm80.949 506.37-0.23047 0.0625c-28.219 3.2344-47.004-0.89062-56.387-12.367-3.2773-5.2383-7.9141-8.543-13.902-9.8984-6.0117-1.3945-11.641-0.47656-16.902 2.7578-5.2305 3.2656-8.5273 7.9023-9.8906 13.906-1.3828 6.0078-0.46094 11.648 2.7461 16.906 4.4844 8.3867 10.59 15.277 18.336 20.672-12.609 11.945-26.949 16.75-43.062 14.379l0.22656-0.054687c-29.141-5.8867-54.938-17.176-77.414-33.855l-0.14453-0.082031c-22.781-17.254-41.461-36.891-56.059-58.902l-0.050781-0.21484c-13.477-20.035-16.746-37.359-9.7852-51.988 2.4297-3.1523 6.0352-5.7344 10.828-7.7578 8.1953 8.5117 17.047 17.113 26.578 25.809 4.5547 4.1211 9.9297 6.043 16.109 5.7539 6.1914-0.24609 11.352-2.6172 15.508-7.1133 4.1328-4.5547 6.0508-9.9258 5.7539-16.109-0.26172-6.1797-2.6133-11.34-7.125-15.504-49.441-45.066-77.449-86.086-84.023-123.06l-0.0625-0.23047c-5.6406-35-3.5781-61.781 6.1992-80.309 15.316-25.625 40.656-42.758 76.023-51.398 6.1836-1.5391 12.16-2.7031 17.898-3.4922 0.18359-0.019531 0.38281-0.023437 0.57812-0.042968 0.76953-0.070313 1.5273-0.19531 2.2734-0.375 14.23-2.0234 26.91-1.8555 38.027 0.46875l-0.78125-0.25781c3.7656 0.95312 7.3906 2.1133 10.879 3.4766 0.24609 0.16016 0.47266 0.29297 0.70703 0.40625 1.8438 0.85156 3.7227 1.8008 5.625 2.8711 8.9844 5.1953 15.281 11.449 18.871 18.75l-0.11328-0.44141c2.4883 5.9336 1.8398 11.91-1.9453 17.93-1.5898 2.8359-3.4883 5.3555-5.6758 7.5625l-0.39062 0.33594-0.082031 0.14453c-5.2969 4.6406-11.98 8.0039-20.023 10.109l-0.074219 0.13281c-19.508 5.3242-33.578 9.293-42.195 11.891-2.2969-0.26953-4.6602-0.14062-7.1172 0.37109-5.5977 1.1992-10.066 4.0859-13.426 8.6914-3.3906 4.6172-4.8203 9.7617-4.2617 15.477 0.61719 5.6992 3.043 10.465 7.2578 14.285 5.7422 6.0117 15.742 10.352 30.031 13.043l0.36719 0.019531c6.8008 1.1836 11.582 2.3906 14.348 3.6094 11.828 7.3242 21.449 19.461 28.844 36.461l0.046874 0.22266c6.6172 15.812 8.125 29.086 4.5 39.781-2.332 5.6641-2.3008 11.344 0.0625 17.043 2.3516 5.7305 6.3555 9.7969 12.035 12.172 5.6641 2.332 11.34 2.3086 17.043-0.0625 5.7227-2.3594 9.7891-6.3594 12.18-12.039 8.2422-17.969 7.875-39.656-1.0898-65.086 2.3672 1.7461 4.8945 3.3984 7.5898 4.9531 11.113 6.4141 22.68 10.426 34.734 12.016-0.011719 1.8359 0.058594 3.6797 0.17188 5.5273 0.50781 21.711 11.695 38.875 33.586 51.523 2.1211 1.2617 4.2461 2.4336 6.3906 3.4961-5.4336 13.258-5.2227 27.332 0.66406 42.23l0.058594 0.21875c5.7305 15.516 17 28.121 33.832 37.848 4.1641 2.4922 8.6133 4.4961 13.336 6.0234-14.305 29.965-33.656 47.074-58.031 51.309zm157.25-129.3c-8.8438 14.578-23.523 25.211-44.047 31.941l0.14453 0.082031c-9.1641 2.9102-17.516 4.625-25.023 5.168l-0.58984 0.027344c-0.49609 0.035156-0.95703 0.078125-1.3906 0.13672-7.4141 0.22656-13.855-1.125-19.324-4.0586-7.0078-4.0352-11.867-9.1406-14.512-15.301l-0.066406-0.22266c-1.6289-4.082-1.5469-7.9023 0.25391-11.441 0.48828-0.88281 0.89844-1.5859 1.2148-2.1016 0.30469-0.24219 0.63281-0.48828 0.98047-0.74219 1.1953-0.77344 2.3086-1.6328 3.3477-2.5547 14.562-1.3555 29.719-6.2461 45.461-14.66l0.21484-0.070312c19.164-10.508 35.434-23.91 48.816-40.199 0.91797-0.0625 1.8594-0.19531 2.8516-0.40625l0.066406 0.22266c6.0391 3.7305 9.8438 9.418 11.434 17.074 1.207 10.586-2.0195 22.859-9.668 36.828l-0.15625 0.28125z"/>
  </g>
 </g>
</svg>
