<?xml version="1.0" encoding="UTF-8"?>
<svg width="1200pt" height="1200pt" version="1.1" viewBox="0 0 1200 1200" xmlns="http://www.w3.org/2000/svg">
 <defs>
  <clipPath id="b">
   <path d="m326 222h495v699h-495z"/>
  </clipPath>
  <clipPath id="a">
   <path d="m83.836 738.3 377.86-654.47 654.47 377.86-377.86 654.47z"/>
  </clipPath>
 </defs>
 <path d="m1200 600c0 214.36-114.36 412.44-300 519.62-185.64 107.18-414.36 107.18-600 0-185.64-107.18-300-305.26-300-519.62s114.36-412.44 300-519.62c185.64-107.18 414.36-107.18 600 0 185.64 107.18 300 305.26 300 519.62" fill="#c2dc63"/>
 <g clip-path="url(#b)">
  <g clip-path="url(#a)">
   <path d="m495.88 918.11c35.57 7.7188 65.152-7.4336 88.754-45.473 0.75-1.1953 1.3594-2.4336 1.8164-3.7031 6.957-0.41406 14.078-1.5469 21.387-3.4062 27.43-6.8516 47.723-21.797 60.883-44.859 1.3945-2.2969 3.1367-6.2383 5.2188-11.773 1.0625-2.8008 1.7656-4.5664 2.1094-5.3164 0.26562-0.45703 0.50781-0.87891 0.75391-1.3086 10.02 0.31641 21.012-1.0273 33.012-4.0078l0.18359-0.050781c28.961-7.1211 49.328-21.289 61.121-42.5 10.512-18.395 14.668-37.414 12.438-57.074-2.5039-22.582-11.652-38.043-27.449-46.398-0.26172-0.15234-0.54688-0.31641-0.83594-0.48438 10.918-20.457 16.109-41.844 15.586-64.176l-0.058594-0.19922c-1.1016-30.082-11.82-50.543-32.172-61.363-6.8125-4.1055-14.086-6.8242-21.863-8.1641 15.008-17.496 29.75-35.707 44.266-54.617 29.965-39.09 48.133-66.891 54.5-83.383 0.003906-0.10547 0.003906-0.21094 0.015625-0.3125 8.2891-21.375 6.0547-42.762-6.6992-64.156l0.046875 0.19141c-12.137-21.805-33.223-33.664-63.289-35.578-28.402-3.9219-59.301 18.645-92.684 67.695-0.39453 0.56641-0.78125 1.1484-1.1562 1.7188 9.6289-42.184 8.3203-71.996-3.8867-89.41l-0.050781-0.19531c-16.043-25.938-33.793-38.453-53.219-37.57-18.008-0.53516-33.863 5.0977-47.613 16.887l0.13281-0.23438c-11.973 9.8906-22.32 23.047-31.07 39.488l-0.13672 0.23828c-8.3203 14.715-17.621 48.371-27.91 100.94-8.0742 41.16-13.086 76.285-15.023 105.39-13.406-0.20703-28.285 1.7148-44.652 5.7109-41.613 10.191-71.145 30.789-88.637 61.762-13.152 21.453-16.508 52.543-10.102 93.27 3.2734 23.82 15.016 48.926 35.207 75.379-7.3477 4.6797-12.816 10.48-16.402 17.395-15.164 24.086-12.016 52.316 9.4844 84.691 14.797 22.117 33.711 41.898 56.742 59.328 23.523 17.848 50.605 29.723 81.254 35.633zm202.67-204.77 0.074218-0.13281c12.277-7.7773 23.273-17.02 33.02-27.688 1.7539 0.12109 3.5781 0.019531 5.4492-0.35547 4.8711 3.5703 7.7578 9.4844 8.6875 17.746 1.3047 11.66-1.2266 22.91-7.5898 33.801-7.4648 12.145-19.891 20.348-37.281 24.605l-0.16797 0.054688c-15.996 3.9805-29.027 3.4062-39.102-1.7305-5.8594-3.3828-9.9844-7.7148-12.367-13.023l-0.050782-0.18359c-1.2656-3.418-1.1133-6.6055 0.46484-9.6016 0.78125-1.3711 1.3086-2.2812 1.582-2.7422 0.11328-0.12891 0.21875-0.21094 0.33594-0.30078l-0.27734 0.48047c1.9922-1.332 3.6328-2.8867 4.9023-4.6445 13.316-1.5 27.418-6.9297 42.32-16.285zm-309.02 88.66c-11.441-17.195-14.176-32.027-8.1992-44.508 2.0703-2.6836 5.1484-4.8906 9.2227-6.6016 6.9688 7.2422 14.516 14.574 22.629 21.984 3.8711 3.5039 8.4453 5.1367 13.719 4.8867 5.2656-0.21875 9.6719-2.2422 13.199-6.0508 3.5156-3.875 5.1562-8.4648 4.9062-13.719-0.22266-5.2578-2.2461-9.6641-6.0625-13.215-42.148-38.422-66.086-73.457-71.824-105.08-4.668-29.734-2.832-52.48 5.5078-68.25 13.035-21.805 34.605-36.391 64.719-43.762l-0.125-0.070313c19.109-4.6641 35.574-5.707 49.371-3.1406 0.14844 0.027344 0.28906 0.050782 0.43359 0.074219 5.1367 1.3164 9.9258 3.2109 14.344 5.7383 7.5781 4.375 12.828 9.5898 15.793 15.633 2.043 4.9922 1.4727 10.031-1.7188 15.082-4.6953 7.6836-12.074 12.918-22.102 15.707-16.434 4.4844-28.34 7.8398-35.727 10.07-2.0664-0.32031-4.25-0.23438-6.5 0.22266-4.7656 1.0195-8.5742 3.4961-11.426 7.3945-2.8906 3.9336-4.1055 8.3359-3.6367 13.184 0.53125 4.8555 2.5938 8.9062 6.1875 12.152 4.8008 5.1016 13.348 8.8594 25.598 11.297 0.16797-0.039063 0.32812-0.03125 0.50391-0.03125 5.8008 1.0039 9.875 2.0273 12.215 3.0781 10.082 6.2188 18.223 16.637 24.422 31.273 5.6445 13.43 6.9297 24.777 3.8828 34.051-1.9102 4.8203-1.8398 9.6523 0.24219 14.461 2.0742 4.8906 5.5625 8.3203 10.43 10.316 4.8203 1.9102 9.6445 1.8359 14.465-0.25 4.8789-2.0898 8.3164-5.5547 10.305-10.426 7.5938-17.238 6.1367-38.238-4.3672-62.965-7.2539-17.18-16.371-30.609-27.336-40.266 16.016-6.2266 27.938-16.312 35.766-30.254 9.3125-16.496 10.582-32.84 3.8125-49.023l-0.16406-0.26953c-5.4297-13.199-15.977-24.34-31.633-33.379-3.0859-1.793-6.2852-3.4258-9.5742-4.8984 1.5664-28.609 6.4609-63.801 14.672-105.58 9.1523-47.004 17.129-77.074 23.922-90.215l0.13281-0.23438c6.2461-11.691 13.578-21.082 22.004-28.184l0.13672-0.23828c6.3672-5.418 13.719-8.0273 22.004-7.8008 7.3281 1.4492 14.594 8.0391 21.84 19.754l-0.039063-0.1875c7.8672 15.879 5.0312 45.945-8.5117 90.211l-0.046875-0.19141c-16.176 52.152-29.707 102.29-40.574 150.45-1.0664 4.8047-0.34766 9.3516 2.1406 13.637 2.4648 4.332 6.0391 7.2383 10.707 8.7305 4.7227 1.4258 9.3203 1.0664 13.844-1.0898 4.5-2.0664 7.6797-5.3789 9.5391-9.918 27.52-68.156 54.832-122.33 81.906-162.52 22.617-33.25 42.156-50.281 58.617-51.113 15.367 0.98828 26.371 6.5859 33.059 16.867l0.046876 0.19141c6.2539 10.359 7.5391 20.711 3.8828 31.027l0.003906-0.30859c-6.0195 14.52-22.449 39.301-49.258 74.316-27.719 36.141-56.301 69.688-85.77 100.63-3.0312 2.7109-5.8867 5.7266-8.5742 9.0586-0.22266 0.26953-0.41406 0.51562-0.59766 0.75-1 1.3789-2.0664 2.8398-3.1641 4.3867-3.0742 4.2344-4.2109 8.9531-3.3789 14.113 0.85156 5.1758 3.4062 9.3164 7.6602 12.363 4.2266 3.0703 8.9375 4.1992 14.098 3.3789 5.1992-0.85937 9.3203-3.4141 12.379-7.6484 0.84766-1.168 1.6602-2.2891 2.4297-3.3672 0.21094-0.24609 0.40625-0.50391 0.60547-0.76563 1.0195-1.1758 2.0859-2.3047 3.2227-3.3828 0.37109-0.26953 0.75781-0.57031 1.1602-0.91797 5.4453-4.7109 12.066-8.3516 19.855-10.965l0.19531-0.050782c10.938-3.4297 20.496-2.9922 28.684 1.2891 8.2773 5.6992 12.684 15.602 13.215 29.746l-0.046875-0.20312c0.42969 16.973-3.8359 33.164-12.793 48.609-10.59 18.426-24.48 33.113-41.648 44.027l0.066406-0.11719c-16.621 10.434-31.219 12.559-43.766 6.3789-4.6289-2.4961-6.8633-6.25-6.7461-11.207l0.0625 0.19141c0.48438-7.0898 3.2891-15.07 8.4062-23.934 2.1445-2.8555 7.9336-8.1133 17.363-15.746 0.10938-0.089843 0.22656-0.17187 0.32031-0.28906 9.4219-7.2695 15.336-11.547 17.738-12.824 4.9961-1.7188 8.6406-4.9102 10.949-9.5898 2.2617-4.707 2.5078-9.5469 0.75781-14.512-1.707-5-4.9102-8.6406-9.5859-10.953-4.7109-2.2344-9.5547-2.4805-14.523-0.74219-4.4453 1.0781-14.121 7.3789-29.031 18.879-0.11328 0.10938-0.21094 0.19922-0.32812 0.28516-15.145 12.277-23.992 21.102-26.582 26.48-8.8516 15.301-13.371 29.191-13.543 41.648l0.046874 0.20312c-0.54297 19.613 7.9531 34.57 25.441 44.91-6.4961 12.48-7.0195 25.812-1.5898 39.949l0.054687 0.20703c4.7773 12.512 13.551 22.766 26.289 30.758-0.52734 1.2656-1.1055 2.7383-1.75 4.4102l-0.066406 0.11719c-1.0508 2.8242-1.8906 4.832-2.5156 6.0234-8.1367 13.84-20.551 22.848-37.227 27.027-16.012 4.0859-30.723 2.75-44.125-4.0195-4.6836-2.4023-9.5195-2.8086-14.559-1.2305-5.0195 1.5703-8.7227 4.6992-11.113 9.3203-2.4141 4.668-2.8281 9.5156-1.25 14.539 1.5781 5.0234 4.6875 8.7266 9.3242 11.125 2.8242 1.4766 5.668 2.7969 8.5352 3.9766-12.02 14.703-26.137 20.871-42.332 18.492-24.695-4.8047-46.504-14.391-65.496-28.719-19.508-14.734-35.52-31.453-48.062-50.137z"/>
  </g>
 </g>
</svg>
